<svg width="1080" height="1080" viewBox="0 0 1080 1080" fill="none" xmlns="http://www.w3.org/2000/svg">
<rect width="1080" height="1080" rx="180" fill="#0E0E0E"/>
<mask id="path-2-outside-1_1515_959" maskUnits="userSpaceOnUse" x="302" y="149" width="475" height="745" fill="black">
<rect fill="white" x="302" y="149" width="475" height="745"/>
<path d="M519.971 888.434V154.094H567.015V888.434H519.971ZM644.752 396.484C642.457 373.344 632.608 355.368 615.206 342.555C597.804 329.743 574.186 323.336 544.354 323.336C524.083 323.336 506.967 326.205 493.007 331.942C479.047 337.488 468.338 345.233 460.88 355.177C453.613 365.121 449.979 376.404 449.979 389.025C449.597 399.543 451.796 408.723 456.577 416.563C461.549 424.404 468.338 431.193 476.944 436.93C485.549 442.475 495.493 447.352 506.776 451.559C518.059 455.575 530.107 459.017 542.919 461.886L595.7 474.507C621.326 480.244 644.847 487.894 666.266 497.455C687.684 507.017 706.234 518.778 721.915 532.738C737.596 546.698 749.739 563.144 758.345 582.076C767.142 601.009 771.636 622.714 771.827 647.192C771.636 683.144 762.457 714.315 744.289 740.705C726.313 766.905 700.305 787.271 666.266 801.805C632.417 816.147 591.589 823.319 543.78 823.319C496.354 823.319 455.047 816.052 419.86 801.518C384.864 786.984 357.518 765.47 337.821 736.976C318.315 708.291 308.084 672.817 307.127 630.554H427.318C428.657 650.252 434.298 666.698 444.242 679.893C454.378 692.897 467.86 702.745 484.689 709.439C501.708 715.941 520.927 719.192 542.346 719.192C563.381 719.192 581.644 716.132 597.134 710.012C612.816 703.893 624.959 695.383 633.565 684.483C642.17 673.582 646.473 661.056 646.473 646.905C646.473 633.71 642.553 622.618 634.712 613.63C627.063 604.642 615.78 596.993 600.863 590.682C586.138 584.371 568.067 578.634 546.648 573.471L482.681 557.407C433.151 545.359 394.043 526.523 365.358 500.897C336.673 475.272 322.426 440.754 322.617 397.344C322.426 361.774 331.892 330.699 351.016 304.117C370.33 277.536 396.816 256.787 430.474 241.87C464.131 226.954 502.378 219.496 545.214 219.496C588.816 219.496 626.871 226.954 659.381 241.87C692.082 256.787 717.516 277.536 735.684 304.117C753.851 330.699 763.221 361.488 763.795 396.484H644.752Z"/>
</mask>
<path d="M519.971 888.434H514.971V893.434H519.971V888.434ZM519.971 154.094V149.094H514.971V154.094H519.971ZM567.015 154.094H572.015V149.094H567.015V154.094ZM567.015 888.434V893.434H572.015V888.434H567.015ZM644.752 396.484L639.776 396.977L640.223 401.484H644.752V396.484ZM493.007 331.942L494.853 336.589L494.881 336.578L494.908 336.567L493.007 331.942ZM460.88 355.177L456.88 352.177L456.861 352.202L456.843 352.227L460.88 355.177ZM449.979 389.025L454.976 389.207L454.979 389.116V389.025H449.979ZM456.577 416.563L452.308 419.166L452.331 419.204L452.355 419.241L456.577 416.563ZM476.944 436.93L474.17 441.09L474.202 441.111L474.235 441.132L476.944 436.93ZM506.776 451.559L505.029 456.244L505.064 456.257L505.099 456.27L506.776 451.559ZM542.919 461.886L544.082 457.023L544.047 457.014L544.012 457.006L542.919 461.886ZM595.7 474.507L594.537 479.37L594.572 479.378L594.608 479.386L595.7 474.507ZM666.266 497.455L664.227 502.021L664.227 502.021L666.266 497.455ZM721.915 532.738L725.239 529.003L725.239 529.003L721.915 532.738ZM758.345 582.076L753.793 584.146L753.802 584.164L753.811 584.183L758.345 582.076ZM771.827 647.192L776.827 647.218L776.827 647.186L776.827 647.153L771.827 647.192ZM744.289 740.705L740.171 737.87L740.166 737.877L744.289 740.705ZM666.266 801.805L668.216 806.409L668.229 806.403L666.266 801.805ZM419.86 801.518L417.942 806.136L417.951 806.139L419.86 801.518ZM337.821 736.976L333.686 739.788L333.697 739.804L333.708 739.82L337.821 736.976ZM307.127 630.554V625.554H302.013L302.129 630.668L307.127 630.554ZM427.318 630.554L432.307 630.215L431.99 625.554H427.318V630.554ZM444.242 679.893L440.249 682.902L440.274 682.935L440.299 682.967L444.242 679.893ZM484.689 709.439L482.841 714.085L482.872 714.097L482.904 714.109L484.689 709.439ZM597.134 710.012L595.317 705.354L595.307 705.358L595.297 705.362L597.134 710.012ZM633.565 684.483L637.489 687.581L637.489 687.581L633.565 684.483ZM634.712 613.63L630.904 616.871L630.924 616.894L630.944 616.917L634.712 613.63ZM600.863 590.682L598.894 595.278L598.905 595.282L598.915 595.287L600.863 590.682ZM546.648 573.471L545.431 578.32L545.454 578.326L545.477 578.332L546.648 573.471ZM482.681 557.407L483.898 552.558L483.88 552.553L483.862 552.549L482.681 557.407ZM365.358 500.897L362.027 504.626L362.027 504.626L365.358 500.897ZM322.617 397.344L327.617 397.366L327.617 397.342L327.617 397.317L322.617 397.344ZM351.016 304.117L346.971 301.178L346.964 301.188L346.957 301.197L351.016 304.117ZM659.381 241.87L657.296 246.415L657.306 246.42L659.381 241.87ZM735.684 304.117L731.556 306.939L731.556 306.939L735.684 304.117ZM763.795 396.484V401.484H768.878L768.794 396.402L763.795 396.484ZM524.971 888.434V154.094H514.971V888.434H524.971ZM519.971 159.094H567.015V149.094H519.971V159.094ZM562.015 154.094V888.434H572.015V154.094H562.015ZM567.015 883.434H519.971V893.434H567.015V883.434ZM649.727 395.99C647.305 371.562 636.807 352.251 618.17 338.529L612.242 346.582C628.409 358.486 637.609 375.126 639.776 396.977L649.727 395.99ZM618.17 338.529C599.637 324.883 574.856 318.336 544.354 318.336V328.336C573.517 328.336 595.971 334.602 612.242 346.582L618.17 338.529ZM544.354 318.336C523.642 318.336 505.838 321.263 491.107 327.317L494.908 336.567C508.097 331.147 524.524 328.336 544.354 328.336V318.336ZM491.161 327.295C476.524 333.11 464.996 341.356 456.88 352.177L464.88 358.177C471.68 349.11 481.57 341.866 494.853 336.589L491.161 327.295ZM456.843 352.227C448.934 363.05 444.979 375.371 444.979 389.025H454.979C454.979 377.436 458.292 367.192 464.917 358.127L456.843 352.227ZM444.983 388.844C444.57 400.194 446.945 410.371 452.308 419.166L460.846 413.96C456.647 407.074 454.624 398.893 454.976 389.207L444.983 388.844ZM452.355 419.241C457.741 427.735 465.05 435.01 474.17 441.09L479.717 432.769C471.626 427.375 465.357 421.072 460.8 413.885L452.355 419.241ZM474.235 441.132C483.19 446.904 493.467 451.932 505.029 456.244L508.523 446.874C497.52 442.771 487.908 438.047 479.652 432.727L474.235 441.132ZM505.099 456.27C516.591 460.36 528.835 463.856 541.827 466.765L544.012 457.006C531.378 454.178 519.527 450.79 508.453 446.848L505.099 456.27ZM541.757 466.749L594.537 479.37L596.863 469.644L544.082 457.023L541.757 466.749ZM594.608 479.386C619.946 485.059 643.147 492.61 664.227 502.021L668.304 492.89C646.548 483.177 622.705 475.429 596.792 469.628L594.608 479.386ZM664.227 502.021C685.231 511.398 703.335 522.891 718.59 536.473L725.239 529.003C709.133 514.664 690.137 502.636 668.304 492.89L664.227 502.021ZM718.59 536.473C733.756 549.974 745.479 565.854 753.793 584.146L762.897 580.007C754 560.434 741.436 543.423 725.239 529.003L718.59 536.473ZM753.811 584.183C762.259 602.365 766.641 623.345 766.827 647.231L776.827 647.153C776.631 622.082 772.025 599.652 762.879 579.97L753.811 584.183ZM766.827 647.165C766.64 682.241 757.701 712.405 740.171 737.87L748.408 743.541C767.212 716.225 776.631 684.047 776.827 647.218L766.827 647.165ZM740.166 737.877C722.811 763.171 697.615 782.983 664.302 797.206L668.229 806.403C702.995 791.559 729.815 770.638 748.412 743.534L740.166 737.877ZM664.315 797.201C631.239 811.216 591.111 818.319 543.78 818.319V828.319C592.067 828.319 633.595 821.078 668.216 806.409L664.315 797.201ZM543.78 818.319C496.853 818.319 456.222 811.127 421.769 796.897L417.951 806.139C453.873 820.976 495.854 828.319 543.78 828.319V818.319ZM421.778 796.9C387.582 782.699 361.033 761.763 341.933 734.133L333.708 739.82C354.002 769.177 382.146 791.269 417.942 806.136L421.778 796.9ZM341.955 734.165C323.1 706.436 313.065 671.952 312.126 630.441L302.129 630.668C303.102 673.682 313.53 710.146 333.686 739.788L341.955 734.165ZM307.127 635.554H427.318V625.554H307.127V635.554ZM422.33 630.893C423.721 651.367 429.616 668.792 440.249 682.902L448.235 676.884C438.981 664.603 433.593 649.136 432.307 630.215L422.33 630.893ZM440.299 682.967C451.033 696.739 465.27 707.096 482.841 714.085L486.536 704.793C470.45 698.395 457.722 689.054 448.186 676.819L440.299 682.967ZM482.904 714.109C500.584 720.864 520.423 724.192 542.346 724.192V714.192C521.432 714.192 502.833 711.018 486.473 704.768L482.904 714.109ZM542.346 724.192C563.852 724.192 582.765 721.065 598.971 714.663L595.297 705.362C580.524 711.199 562.911 714.192 542.346 714.192V724.192ZM598.952 714.67C615.286 708.296 628.226 699.313 637.489 687.581L629.64 681.384C621.692 691.452 610.345 699.49 595.317 705.354L598.952 714.67ZM637.489 687.581C646.805 675.78 651.473 662.157 651.473 646.905H641.473C641.473 659.955 637.535 671.384 629.64 681.384L637.489 687.581ZM651.473 646.905C651.473 632.639 647.201 620.341 638.48 610.343L630.944 616.917C637.904 624.895 641.473 634.78 641.473 646.905H651.473ZM638.52 610.39C630.213 600.629 618.193 592.585 602.812 586.077L598.915 595.287C613.367 601.401 623.912 608.655 630.904 616.871L638.52 610.39ZM602.833 586.086C587.774 579.633 569.418 573.817 547.82 568.61L545.477 578.332C566.716 583.452 584.502 589.11 598.894 595.278L602.833 586.086ZM547.866 568.622L483.898 552.558L481.463 562.257L545.431 578.32L547.866 568.622ZM483.862 552.549C434.881 540.635 396.595 522.098 368.689 497.169L362.027 504.626C391.492 530.948 431.421 550.084 481.499 562.266L483.862 552.549ZM368.689 497.169C341.216 472.625 327.431 439.55 327.617 397.366L317.617 397.322C317.421 441.959 332.131 477.919 362.027 504.626L368.689 497.169ZM327.617 397.317C327.431 362.708 336.622 332.686 355.074 307.037L346.957 301.197C327.162 328.712 317.421 360.84 317.617 397.371L327.617 397.317ZM355.061 307.056C373.798 281.27 399.548 261.045 432.499 246.442L428.448 237.299C394.085 252.528 366.863 273.801 346.971 301.178L355.061 307.056ZM432.499 246.442C465.423 231.851 502.962 224.496 545.214 224.496V214.496C501.793 214.496 462.839 222.058 428.448 237.299L432.499 246.442ZM545.214 224.496C588.25 224.496 625.567 231.857 657.296 246.415L661.466 237.326C628.175 222.051 589.381 214.496 545.214 214.496V224.496ZM657.306 246.42C689.277 261.003 713.961 281.194 731.556 306.939L739.812 301.296C721.072 273.877 694.887 252.571 661.456 237.321L657.306 246.42ZM731.556 306.939C749.122 332.642 758.237 362.459 758.796 396.565L768.794 396.402C768.206 360.516 758.579 328.756 739.812 301.296L731.556 306.939ZM763.795 391.484H644.752V401.484H763.795V391.484Z" fill="url(#paint0_linear_1515_959)" mask="url(#path-2-outside-1_1515_959)"/>
<path d="M519.971 888.434H514.971V893.434H519.971V888.434ZM519.971 154.094V149.094H514.971V154.094H519.971ZM567.015 154.094H572.015V149.094H567.015V154.094ZM567.015 888.434V893.434H572.015V888.434H567.015ZM644.752 396.484L639.776 396.977L640.223 401.484H644.752V396.484ZM493.007 331.942L494.853 336.589L494.881 336.578L494.908 336.567L493.007 331.942ZM460.88 355.177L456.88 352.177L456.861 352.202L456.843 352.227L460.88 355.177ZM449.979 389.025L454.976 389.207L454.979 389.116V389.025H449.979ZM456.577 416.563L452.308 419.166L452.331 419.204L452.355 419.241L456.577 416.563ZM476.944 436.93L474.17 441.09L474.202 441.111L474.235 441.132L476.944 436.93ZM506.776 451.559L505.029 456.244L505.064 456.257L505.099 456.27L506.776 451.559ZM542.919 461.886L544.082 457.023L544.047 457.014L544.012 457.006L542.919 461.886ZM595.7 474.507L594.537 479.37L594.572 479.378L594.608 479.386L595.7 474.507ZM666.266 497.455L664.227 502.021L664.227 502.021L666.266 497.455ZM721.915 532.738L725.239 529.003L725.239 529.003L721.915 532.738ZM758.345 582.076L753.793 584.146L753.802 584.164L753.811 584.183L758.345 582.076ZM771.827 647.192L776.827 647.218L776.827 647.186L776.827 647.153L771.827 647.192ZM744.289 740.705L740.171 737.87L740.166 737.877L744.289 740.705ZM666.266 801.805L668.216 806.409L668.229 806.403L666.266 801.805ZM419.86 801.518L417.942 806.136L417.951 806.139L419.86 801.518ZM337.821 736.976L333.686 739.788L333.697 739.804L333.708 739.82L337.821 736.976ZM307.127 630.554V625.554H302.013L302.129 630.668L307.127 630.554ZM427.318 630.554L432.307 630.215L431.99 625.554H427.318V630.554ZM444.242 679.893L440.249 682.902L440.274 682.935L440.299 682.967L444.242 679.893ZM484.689 709.439L482.841 714.085L482.872 714.097L482.904 714.109L484.689 709.439ZM597.134 710.012L595.317 705.354L595.307 705.358L595.297 705.362L597.134 710.012ZM633.565 684.483L637.489 687.581L637.489 687.581L633.565 684.483ZM634.712 613.63L630.904 616.871L630.924 616.894L630.944 616.917L634.712 613.63ZM600.863 590.682L598.894 595.278L598.905 595.282L598.915 595.287L600.863 590.682ZM546.648 573.471L545.431 578.32L545.454 578.326L545.477 578.332L546.648 573.471ZM482.681 557.407L483.898 552.558L483.88 552.553L483.862 552.549L482.681 557.407ZM365.358 500.897L362.027 504.626L362.027 504.626L365.358 500.897ZM322.617 397.344L327.617 397.366L327.617 397.342L327.617 397.317L322.617 397.344ZM351.016 304.117L346.971 301.178L346.964 301.188L346.957 301.197L351.016 304.117ZM659.381 241.87L657.296 246.415L657.306 246.42L659.381 241.87ZM735.684 304.117L731.556 306.939L731.556 306.939L735.684 304.117ZM763.795 396.484V401.484H768.878L768.794 396.402L763.795 396.484ZM524.971 888.434V154.094H514.971V888.434H524.971ZM519.971 159.094H567.015V149.094H519.971V159.094ZM562.015 154.094V888.434H572.015V154.094H562.015ZM567.015 883.434H519.971V893.434H567.015V883.434ZM649.727 395.99C647.305 371.562 636.807 352.251 618.17 338.529L612.242 346.582C628.409 358.486 637.609 375.126 639.776 396.977L649.727 395.99ZM618.17 338.529C599.637 324.883 574.856 318.336 544.354 318.336V328.336C573.517 328.336 595.971 334.602 612.242 346.582L618.17 338.529ZM544.354 318.336C523.642 318.336 505.838 321.263 491.107 327.317L494.908 336.567C508.097 331.147 524.524 328.336 544.354 328.336V318.336ZM491.161 327.295C476.524 333.11 464.996 341.356 456.88 352.177L464.88 358.177C471.68 349.11 481.57 341.866 494.853 336.589L491.161 327.295ZM456.843 352.227C448.934 363.05 444.979 375.371 444.979 389.025H454.979C454.979 377.436 458.292 367.192 464.917 358.127L456.843 352.227ZM444.983 388.844C444.57 400.194 446.945 410.371 452.308 419.166L460.846 413.96C456.647 407.074 454.624 398.893 454.976 389.207L444.983 388.844ZM452.355 419.241C457.741 427.735 465.05 435.01 474.17 441.09L479.717 432.769C471.626 427.375 465.357 421.072 460.8 413.885L452.355 419.241ZM474.235 441.132C483.19 446.904 493.467 451.932 505.029 456.244L508.523 446.874C497.52 442.771 487.908 438.047 479.652 432.727L474.235 441.132ZM505.099 456.27C516.591 460.36 528.835 463.856 541.827 466.765L544.012 457.006C531.378 454.178 519.527 450.79 508.453 446.848L505.099 456.27ZM541.757 466.749L594.537 479.37L596.863 469.644L544.082 457.023L541.757 466.749ZM594.608 479.386C619.946 485.059 643.147 492.61 664.227 502.021L668.304 492.89C646.548 483.177 622.705 475.429 596.792 469.628L594.608 479.386ZM664.227 502.021C685.231 511.398 703.335 522.891 718.59 536.473L725.239 529.003C709.133 514.664 690.137 502.636 668.304 492.89L664.227 502.021ZM718.59 536.473C733.756 549.974 745.479 565.854 753.793 584.146L762.897 580.007C754 560.434 741.436 543.423 725.239 529.003L718.59 536.473ZM753.811 584.183C762.259 602.365 766.641 623.345 766.827 647.231L776.827 647.153C776.631 622.082 772.025 599.652 762.879 579.97L753.811 584.183ZM766.827 647.165C766.64 682.241 757.701 712.405 740.171 737.87L748.408 743.541C767.212 716.225 776.631 684.047 776.827 647.218L766.827 647.165ZM740.166 737.877C722.811 763.171 697.615 782.983 664.302 797.206L668.229 806.403C702.995 791.559 729.815 770.638 748.412 743.534L740.166 737.877ZM664.315 797.201C631.239 811.216 591.111 818.319 543.78 818.319V828.319C592.067 828.319 633.595 821.078 668.216 806.409L664.315 797.201ZM543.78 818.319C496.853 818.319 456.222 811.127 421.769 796.897L417.951 806.139C453.873 820.976 495.854 828.319 543.78 828.319V818.319ZM421.778 796.9C387.582 782.699 361.033 761.763 341.933 734.133L333.708 739.82C354.002 769.177 382.146 791.269 417.942 806.136L421.778 796.9ZM341.955 734.165C323.1 706.436 313.065 671.952 312.126 630.441L302.129 630.668C303.102 673.682 313.53 710.146 333.686 739.788L341.955 734.165ZM307.127 635.554H427.318V625.554H307.127V635.554ZM422.33 630.893C423.721 651.367 429.616 668.792 440.249 682.902L448.235 676.884C438.981 664.603 433.593 649.136 432.307 630.215L422.33 630.893ZM440.299 682.967C451.033 696.739 465.27 707.096 482.841 714.085L486.536 704.793C470.45 698.395 457.722 689.054 448.186 676.819L440.299 682.967ZM482.904 714.109C500.584 720.864 520.423 724.192 542.346 724.192V714.192C521.432 714.192 502.833 711.018 486.473 704.768L482.904 714.109ZM542.346 724.192C563.852 724.192 582.765 721.065 598.971 714.663L595.297 705.362C580.524 711.199 562.911 714.192 542.346 714.192V724.192ZM598.952 714.67C615.286 708.296 628.226 699.313 637.489 687.581L629.64 681.384C621.692 691.452 610.345 699.49 595.317 705.354L598.952 714.67ZM637.489 687.581C646.805 675.78 651.473 662.157 651.473 646.905H641.473C641.473 659.955 637.535 671.384 629.64 681.384L637.489 687.581ZM651.473 646.905C651.473 632.639 647.201 620.341 638.48 610.343L630.944 616.917C637.904 624.895 641.473 634.78 641.473 646.905H651.473ZM638.52 610.39C630.213 600.629 618.193 592.585 602.812 586.077L598.915 595.287C613.367 601.401 623.912 608.655 630.904 616.871L638.52 610.39ZM602.833 586.086C587.774 579.633 569.418 573.817 547.82 568.61L545.477 578.332C566.716 583.452 584.502 589.11 598.894 595.278L602.833 586.086ZM547.866 568.622L483.898 552.558L481.463 562.257L545.431 578.32L547.866 568.622ZM483.862 552.549C434.881 540.635 396.595 522.098 368.689 497.169L362.027 504.626C391.492 530.948 431.421 550.084 481.499 562.266L483.862 552.549ZM368.689 497.169C341.216 472.625 327.431 439.55 327.617 397.366L317.617 397.322C317.421 441.959 332.131 477.919 362.027 504.626L368.689 497.169ZM327.617 397.317C327.431 362.708 336.622 332.686 355.074 307.037L346.957 301.197C327.162 328.712 317.421 360.84 317.617 397.371L327.617 397.317ZM355.061 307.056C373.798 281.27 399.548 261.045 432.499 246.442L428.448 237.299C394.085 252.528 366.863 273.801 346.971 301.178L355.061 307.056ZM432.499 246.442C465.423 231.851 502.962 224.496 545.214 224.496V214.496C501.793 214.496 462.839 222.058 428.448 237.299L432.499 246.442ZM545.214 224.496C588.25 224.496 625.567 231.857 657.296 246.415L661.466 237.326C628.175 222.051 589.381 214.496 545.214 214.496V224.496ZM657.306 246.42C689.277 261.003 713.961 281.194 731.556 306.939L739.812 301.296C721.072 273.877 694.887 252.571 661.456 237.321L657.306 246.42ZM731.556 306.939C749.122 332.642 758.237 362.459 758.796 396.565L768.794 396.402C768.206 360.516 758.579 328.756 739.812 301.296L731.556 306.939ZM763.795 391.484H644.752V401.484H763.795V391.484Z" fill="url(#paint1_radial_1515_959)" mask="url(#path-2-outside-1_1515_959)"/>
<path d="M519.971 888.434H514.971V893.434H519.971V888.434ZM519.971 154.094V149.094H514.971V154.094H519.971ZM567.015 154.094H572.015V149.094H567.015V154.094ZM567.015 888.434V893.434H572.015V888.434H567.015ZM644.752 396.484L639.776 396.977L640.223 401.484H644.752V396.484ZM493.007 331.942L494.853 336.589L494.881 336.578L494.908 336.567L493.007 331.942ZM460.88 355.177L456.88 352.177L456.861 352.202L456.843 352.227L460.88 355.177ZM449.979 389.025L454.976 389.207L454.979 389.116V389.025H449.979ZM456.577 416.563L452.308 419.166L452.331 419.204L452.355 419.241L456.577 416.563ZM476.944 436.93L474.17 441.09L474.202 441.111L474.235 441.132L476.944 436.93ZM506.776 451.559L505.029 456.244L505.064 456.257L505.099 456.27L506.776 451.559ZM542.919 461.886L544.082 457.023L544.047 457.014L544.012 457.006L542.919 461.886ZM595.7 474.507L594.537 479.37L594.572 479.378L594.608 479.386L595.7 474.507ZM666.266 497.455L664.227 502.021L664.227 502.021L666.266 497.455ZM721.915 532.738L725.239 529.003L725.239 529.003L721.915 532.738ZM758.345 582.076L753.793 584.146L753.802 584.164L753.811 584.183L758.345 582.076ZM771.827 647.192L776.827 647.218L776.827 647.186L776.827 647.153L771.827 647.192ZM744.289 740.705L740.171 737.87L740.166 737.877L744.289 740.705ZM666.266 801.805L668.216 806.409L668.229 806.403L666.266 801.805ZM419.86 801.518L417.942 806.136L417.951 806.139L419.86 801.518ZM337.821 736.976L333.686 739.788L333.697 739.804L333.708 739.82L337.821 736.976ZM307.127 630.554V625.554H302.013L302.129 630.668L307.127 630.554ZM427.318 630.554L432.307 630.215L431.99 625.554H427.318V630.554ZM444.242 679.893L440.249 682.902L440.274 682.935L440.299 682.967L444.242 679.893ZM484.689 709.439L482.841 714.085L482.872 714.097L482.904 714.109L484.689 709.439ZM597.134 710.012L595.317 705.354L595.307 705.358L595.297 705.362L597.134 710.012ZM633.565 684.483L637.489 687.581L637.489 687.581L633.565 684.483ZM634.712 613.63L630.904 616.871L630.924 616.894L630.944 616.917L634.712 613.63ZM600.863 590.682L598.894 595.278L598.905 595.282L598.915 595.287L600.863 590.682ZM546.648 573.471L545.431 578.32L545.454 578.326L545.477 578.332L546.648 573.471ZM482.681 557.407L483.898 552.558L483.88 552.553L483.862 552.549L482.681 557.407ZM365.358 500.897L362.027 504.626L362.027 504.626L365.358 500.897ZM322.617 397.344L327.617 397.366L327.617 397.342L327.617 397.317L322.617 397.344ZM351.016 304.117L346.971 301.178L346.964 301.188L346.957 301.197L351.016 304.117ZM659.381 241.87L657.296 246.415L657.306 246.42L659.381 241.87ZM735.684 304.117L731.556 306.939L731.556 306.939L735.684 304.117ZM763.795 396.484V401.484H768.878L768.794 396.402L763.795 396.484ZM524.971 888.434V154.094H514.971V888.434H524.971ZM519.971 159.094H567.015V149.094H519.971V159.094ZM562.015 154.094V888.434H572.015V154.094H562.015ZM567.015 883.434H519.971V893.434H567.015V883.434ZM649.727 395.99C647.305 371.562 636.807 352.251 618.17 338.529L612.242 346.582C628.409 358.486 637.609 375.126 639.776 396.977L649.727 395.99ZM618.17 338.529C599.637 324.883 574.856 318.336 544.354 318.336V328.336C573.517 328.336 595.971 334.602 612.242 346.582L618.17 338.529ZM544.354 318.336C523.642 318.336 505.838 321.263 491.107 327.317L494.908 336.567C508.097 331.147 524.524 328.336 544.354 328.336V318.336ZM491.161 327.295C476.524 333.11 464.996 341.356 456.88 352.177L464.88 358.177C471.68 349.11 481.57 341.866 494.853 336.589L491.161 327.295ZM456.843 352.227C448.934 363.05 444.979 375.371 444.979 389.025H454.979C454.979 377.436 458.292 367.192 464.917 358.127L456.843 352.227ZM444.983 388.844C444.57 400.194 446.945 410.371 452.308 419.166L460.846 413.96C456.647 407.074 454.624 398.893 454.976 389.207L444.983 388.844ZM452.355 419.241C457.741 427.735 465.05 435.01 474.17 441.09L479.717 432.769C471.626 427.375 465.357 421.072 460.8 413.885L452.355 419.241ZM474.235 441.132C483.19 446.904 493.467 451.932 505.029 456.244L508.523 446.874C497.52 442.771 487.908 438.047 479.652 432.727L474.235 441.132ZM505.099 456.27C516.591 460.36 528.835 463.856 541.827 466.765L544.012 457.006C531.378 454.178 519.527 450.79 508.453 446.848L505.099 456.27ZM541.757 466.749L594.537 479.37L596.863 469.644L544.082 457.023L541.757 466.749ZM594.608 479.386C619.946 485.059 643.147 492.61 664.227 502.021L668.304 492.89C646.548 483.177 622.705 475.429 596.792 469.628L594.608 479.386ZM664.227 502.021C685.231 511.398 703.335 522.891 718.59 536.473L725.239 529.003C709.133 514.664 690.137 502.636 668.304 492.89L664.227 502.021ZM718.59 536.473C733.756 549.974 745.479 565.854 753.793 584.146L762.897 580.007C754 560.434 741.436 543.423 725.239 529.003L718.59 536.473ZM753.811 584.183C762.259 602.365 766.641 623.345 766.827 647.231L776.827 647.153C776.631 622.082 772.025 599.652 762.879 579.97L753.811 584.183ZM766.827 647.165C766.64 682.241 757.701 712.405 740.171 737.87L748.408 743.541C767.212 716.225 776.631 684.047 776.827 647.218L766.827 647.165ZM740.166 737.877C722.811 763.171 697.615 782.983 664.302 797.206L668.229 806.403C702.995 791.559 729.815 770.638 748.412 743.534L740.166 737.877ZM664.315 797.201C631.239 811.216 591.111 818.319 543.78 818.319V828.319C592.067 828.319 633.595 821.078 668.216 806.409L664.315 797.201ZM543.78 818.319C496.853 818.319 456.222 811.127 421.769 796.897L417.951 806.139C453.873 820.976 495.854 828.319 543.78 828.319V818.319ZM421.778 796.9C387.582 782.699 361.033 761.763 341.933 734.133L333.708 739.82C354.002 769.177 382.146 791.269 417.942 806.136L421.778 796.9ZM341.955 734.165C323.1 706.436 313.065 671.952 312.126 630.441L302.129 630.668C303.102 673.682 313.53 710.146 333.686 739.788L341.955 734.165ZM307.127 635.554H427.318V625.554H307.127V635.554ZM422.33 630.893C423.721 651.367 429.616 668.792 440.249 682.902L448.235 676.884C438.981 664.603 433.593 649.136 432.307 630.215L422.33 630.893ZM440.299 682.967C451.033 696.739 465.27 707.096 482.841 714.085L486.536 704.793C470.45 698.395 457.722 689.054 448.186 676.819L440.299 682.967ZM482.904 714.109C500.584 720.864 520.423 724.192 542.346 724.192V714.192C521.432 714.192 502.833 711.018 486.473 704.768L482.904 714.109ZM542.346 724.192C563.852 724.192 582.765 721.065 598.971 714.663L595.297 705.362C580.524 711.199 562.911 714.192 542.346 714.192V724.192ZM598.952 714.67C615.286 708.296 628.226 699.313 637.489 687.581L629.64 681.384C621.692 691.452 610.345 699.49 595.317 705.354L598.952 714.67ZM637.489 687.581C646.805 675.78 651.473 662.157 651.473 646.905H641.473C641.473 659.955 637.535 671.384 629.64 681.384L637.489 687.581ZM651.473 646.905C651.473 632.639 647.201 620.341 638.48 610.343L630.944 616.917C637.904 624.895 641.473 634.78 641.473 646.905H651.473ZM638.52 610.39C630.213 600.629 618.193 592.585 602.812 586.077L598.915 595.287C613.367 601.401 623.912 608.655 630.904 616.871L638.52 610.39ZM602.833 586.086C587.774 579.633 569.418 573.817 547.82 568.61L545.477 578.332C566.716 583.452 584.502 589.11 598.894 595.278L602.833 586.086ZM547.866 568.622L483.898 552.558L481.463 562.257L545.431 578.32L547.866 568.622ZM483.862 552.549C434.881 540.635 396.595 522.098 368.689 497.169L362.027 504.626C391.492 530.948 431.421 550.084 481.499 562.266L483.862 552.549ZM368.689 497.169C341.216 472.625 327.431 439.55 327.617 397.366L317.617 397.322C317.421 441.959 332.131 477.919 362.027 504.626L368.689 497.169ZM327.617 397.317C327.431 362.708 336.622 332.686 355.074 307.037L346.957 301.197C327.162 328.712 317.421 360.84 317.617 397.371L327.617 397.317ZM355.061 307.056C373.798 281.27 399.548 261.045 432.499 246.442L428.448 237.299C394.085 252.528 366.863 273.801 346.971 301.178L355.061 307.056ZM432.499 246.442C465.423 231.851 502.962 224.496 545.214 224.496V214.496C501.793 214.496 462.839 222.058 428.448 237.299L432.499 246.442ZM545.214 224.496C588.25 224.496 625.567 231.857 657.296 246.415L661.466 237.326C628.175 222.051 589.381 214.496 545.214 214.496V224.496ZM657.306 246.42C689.277 261.003 713.961 281.194 731.556 306.939L739.812 301.296C721.072 273.877 694.887 252.571 661.456 237.321L657.306 246.42ZM731.556 306.939C749.122 332.642 758.237 362.459 758.796 396.565L768.794 396.402C768.206 360.516 758.579 328.756 739.812 301.296L731.556 306.939ZM763.795 391.484H644.752V401.484H763.795V391.484Z" fill="url(#paint2_radial_1515_959)" mask="url(#path-2-outside-1_1515_959)"/>
<defs>
<linearGradient id="paint0_linear_1515_959" x1="311.814" y1="56.462" x2="1054.91" y2="532.425" gradientUnits="userSpaceOnUse">
<stop stop-color="#E31717"/>
<stop offset="1" stop-color="#FFB800"/>
</linearGradient>
<radialGradient id="paint1_radial_1515_959" cx="0" cy="0" r="1" gradientUnits="userSpaceOnUse" gradientTransform="translate(620.973 654.138) rotate(-113.685) scale(560.689 527.398)">
<stop stop-color="#E31717" stop-opacity="0"/>
<stop offset="1" stop-color="#FFB800"/>
</radialGradient>
<radialGradient id="paint2_radial_1515_959" cx="0" cy="0" r="1" gradientUnits="userSpaceOnUse" gradientTransform="translate(700.426 909.425) rotate(-114.463) scale(650.54 649.356)">
<stop stop-color="#FFB800"/>
<stop offset="0.986758" stop-color="#E31717" stop-opacity="0"/>
</radialGradient>
</defs>
</svg>
