
<svg width="1080" height="1080" viewBox="0 0 1080 1080" fill="none" xmlns="http://www.w3.org/2000/svg">
<rect width="1080" height="1080" rx="180" fill="#0E0E0E"/>
<path d="M451.528 476.886L701.002 458.635C704.285 458.394 707.459 459.864 709.401 462.522L760.867 532.978C763.326 536.345 763.315 540.918 760.838 544.272L709.367 613.977C707.443 616.584 704.326 618.035 701.092 617.831L451.665 602.071C448.365 601.862 445.408 599.959 443.851 597.042L415.109 543.19C413.592 540.349 413.612 536.933 415.162 534.109L443.861 481.811C445.417 478.976 448.303 477.122 451.528 476.886Z" fill="#FF4E27"/>
<path d="M648.022 403.128L452.3 425.584C448.665 426.001 445.112 424.303 443.154 421.212L386.148 331.23C382.644 325.7 385.624 318.366 391.991 316.846L561.257 276.431C564.905 275.56 568.725 276.907 571.02 279.874L654.481 387.815C659.026 393.693 655.404 402.281 648.022 403.128Z" fill="#FF4E27"/>
<path d="M648.022 675.872L452.3 653.416C448.665 652.999 445.112 654.697 443.154 657.788L386.148 747.77C382.644 753.3 385.624 760.634 391.991 762.154L561.257 802.569C564.905 803.44 568.725 802.093 571.02 799.126L654.481 691.185C659.026 685.307 655.404 676.719 648.022 675.872Z" fill="#FF4E27"/>
<path d="M451.806 480.692L701.28 462.44C703.25 462.296 705.155 463.178 706.32 464.772L757.786 535.229C759.262 537.249 759.254 539.993 757.769 542.005L706.298 611.71C705.143 613.274 703.273 614.145 701.332 614.023L451.906 598.263C449.925 598.137 448.151 596.996 447.217 595.245L418.475 541.394C417.565 539.689 417.577 537.639 418.507 535.945L447.206 483.647C448.139 481.946 449.871 480.833 451.806 480.692ZM647.587 399.337L451.865 421.793C449.684 422.044 447.552 421.025 446.377 419.17L389.371 329.188C387.269 325.87 389.057 321.47 392.877 320.557L562.144 280.142C564.332 279.62 566.624 280.428 568.001 282.208L651.463 390.149C654.189 393.676 652.016 398.829 647.587 399.337ZM451.865 657.207L647.587 679.663C652.016 680.171 654.189 685.324 651.463 688.851L568.001 796.791C566.624 798.572 564.332 799.38 562.144 798.858L392.877 758.443C389.057 757.53 387.269 753.13 389.371 749.812L446.377 659.83C447.552 657.975 449.684 656.956 451.865 657.207Z" stroke="url(#paint0_linear_1516_2)" stroke-opacity="0.2" stroke-width="7.6316"/>
<defs>
<linearGradient id="paint0_linear_1516_2" x1="765" y1="539.5" x2="379" y2="539.5" gradientUnits="userSpaceOnUse">
<stop stop-color="white"/>
<stop offset="1" stop-color="white" stop-opacity="0"/>
</linearGradient>
</defs>
</svg>
