<svg
        width="100%"
        height="100%"
        viewBox="0 0 1080 1080"
        fill="none"
        overflow="visible"
        xmlns="http://www.w3.org/2000/svg"
      >
        <rect width="1080" height="1080" rx="180" fill="#0E0E0E" />

        <g class="mst_logo">
          <path
            d="M475.528 476.886L725.002 458.635C728.285 458.394 731.459 459.864 733.401 462.522L784.867 532.978C787.326 536.345 787.315 540.918 784.838 544.272L733.367 613.977C731.443 616.584 728.326 618.035 725.092 617.831L475.665 602.071C472.365 601.862 469.408 599.959 467.851 597.042L439.109 543.19C437.592 540.349 437.612 536.933 439.162 534.109L467.861 481.811C469.417 478.976 472.303 477.122 475.528 476.886Z"
            fill="url(#paint0_linear_1516_174)"
            fill-opacity="0.46"
          />
          <path
            d="M672.022 403.128L476.3 425.584C472.665 426.001 469.112 424.303 467.154 421.212L410.148 331.23C406.644 325.7 409.624 318.366 415.991 316.846L585.257 276.431C588.905 275.56 592.725 276.907 595.02 279.874L678.481 387.815C683.026 393.693 679.404 402.281 672.022 403.128Z"
            fill="url(#paint1_linear_1516_174)"
            fill-opacity="0.46"
          />
          <path
            d="M672.022 675.872L476.3 653.416C472.665 652.999 469.112 654.697 467.154 657.788L410.148 747.77C406.644 753.3 409.624 760.634 415.991 762.154L585.257 802.569C588.905 803.44 592.725 802.093 595.02 799.126L678.481 691.185C683.026 685.307 679.404 676.719 672.022 675.872Z"
            fill="url(#paint2_linear_1516_174)"
            fill-opacity="0.46"
          />
          <path
            d="M475.966 482.87L725.44 464.619C726.658 464.529 727.836 465.075 728.556 466.061L780.022 536.517C780.935 537.766 780.93 539.463 780.012 540.708L728.541 610.413C727.826 611.38 726.67 611.918 725.47 611.843L476.043 596.083C474.819 596.005 473.722 595.299 473.144 594.217L444.402 540.365C443.839 539.311 443.847 538.044 444.422 536.996L473.121 484.698C473.698 483.646 474.769 482.958 475.966 482.87ZM415.216 328.019L410.148 331.23L415.216 328.019C413.916 325.967 415.022 323.246 417.384 322.682L586.651 282.267C588.004 281.944 589.422 282.444 590.273 283.545L595.02 279.874L590.273 283.545L673.735 391.485C675.421 393.666 674.077 396.853 671.338 397.167L475.616 419.623C474.267 419.778 472.949 419.148 472.222 418.001L415.216 328.019ZM475.616 659.377L671.338 681.833C674.077 682.147 675.421 685.334 673.735 687.515L590.273 795.455C589.422 796.556 588.004 797.056 586.651 796.733L417.384 756.318C415.022 755.754 413.916 753.033 415.216 750.981L472.222 660.999C472.949 659.852 474.267 659.222 475.616 659.377Z"
            stroke="url(#paint3_linear_1516_174)"
            stroke-opacity="0.2"
            stroke-width="12"
          />
        </g>

        <defs>
          <linearGradient
            id="paint0_linear_1516_174"
            x1="789"
            y1="539.5"
            x2="403"
            y2="539.5"
            gradientUnits="userSpaceOnUse"
          >
            <stop stop-color="white" />
            <stop offset="1" stop-color="white" stop-opacity="0" />
          </linearGradient>
          <linearGradient
            id="paint1_linear_1516_174"
            x1="789"
            y1="539.5"
            x2="403"
            y2="539.5"
            gradientUnits="userSpaceOnUse"
          >
            <stop stop-color="white" />
            <stop offset="1" stop-color="white" stop-opacity="0" />
          </linearGradient>
          <linearGradient
            id="paint2_linear_1516_174"
            x1="789"
            y1="539.5"
            x2="403"
            y2="539.5"
            gradientUnits="userSpaceOnUse"
          >
            <stop stop-color="white" />
            <stop offset="1" stop-color="white" stop-opacity="0" />
          </linearGradient>
          <linearGradient
            id="paint3_linear_1516_174"
            x1="789"
            y1="539.5"
            x2="403"
            y2="539.5"
            gradientUnits="userSpaceOnUse"
          >
            <stop stop-color="white" />
            <stop offset="1" stop-color="white" stop-opacity="0" />
          </linearGradient>
        </defs>
      </svg>