<svg width="1080" height="1080" viewBox="0 0 1080 1080" fill="none" xmlns="http://www.w3.org/2000/svg">
<rect width="1080" height="1080" rx="180" fill="#0E0E0E"/>
<path d="M539.5 909.424C688.751 817.211 838.002 712.535 918.68 551.962C947.733 494.142 966.888 428.916 962.33 363.548C957.773 298.179 926.726 232.953 873.606 199.628C849.039 184.247 820.912 176.058 792.571 172.711C696.584 161.389 596.68 208.885 539.5 291.343" stroke="url(#paint0_linear_1515_961)" stroke-width="3" stroke-linecap="round" stroke-linejoin="round"/>
<path d="M539.5 909.424C688.751 817.211 838.002 712.535 918.68 551.962C947.733 494.142 966.888 428.916 962.33 363.548C957.773 298.179 926.726 232.953 873.606 199.628C849.039 184.247 820.912 176.058 792.571 172.711C696.584 161.389 596.68 208.885 539.5 291.343" stroke="url(#paint1_radial_1515_961)" stroke-width="3" stroke-linecap="round" stroke-linejoin="round"/>
<path d="M539.5 301.741C586.283 220.707 668.03 174.066 746.572 185.103C769.785 188.379 792.785 196.425 812.866 211.592C856.302 244.348 881.724 308.506 885.498 372.735C889.271 436.964 873.534 501.122 849.751 557.946C783.742 715.813 661.621 818.708 539.5 909.426" stroke="url(#paint2_linear_1515_961)" stroke-width="3" stroke-linecap="round" stroke-linejoin="round"/>
<path d="M539.5 301.741C586.283 220.707 668.03 174.066 746.572 185.103C769.785 188.379 792.785 196.425 812.866 211.592C856.302 244.348 881.724 308.506 885.498 372.735C889.271 436.964 873.534 501.122 849.751 557.946C783.742 715.813 661.621 818.708 539.5 909.426" stroke="url(#paint3_radial_1515_961)" stroke-width="3" stroke-linecap="round" stroke-linejoin="round"/>
<path d="M539.5 313.134C575.887 233.667 639.475 187.809 700.571 198.704C718.587 201.908 736.531 209.813 752.126 224.695C785.949 256.881 805.674 319.757 808.593 382.846C811.513 445.936 799.265 508.813 780.822 564.568C729.482 719.516 634.491 820.488 539.5 909.426" stroke="url(#paint4_linear_1515_961)" stroke-width="3" stroke-linecap="round" stroke-linejoin="round"/>
<path d="M539.5 313.134C575.887 233.667 639.475 187.809 700.571 198.704C718.587 201.908 736.531 209.813 752.126 224.695C785.949 256.881 805.674 319.757 808.593 382.846C811.513 445.936 799.265 508.813 780.822 564.568C729.482 719.516 634.491 820.488 539.5 909.426" stroke="url(#paint5_radial_1515_961)" stroke-width="3" stroke-linecap="round" stroke-linejoin="round"/>
<path d="M539.499 327.798C565.49 250.253 610.921 205.534 654.5 216.216C667.388 219.349 680.206 227.039 691.314 241.565C715.453 272.968 729.552 334.349 731.617 395.801C733.682 457.324 724.995 518.634 711.75 573.108C675.079 724.21 607.218 822.69 539.428 909.492" stroke="url(#paint6_linear_1515_961)" stroke-width="3" stroke-linecap="round" stroke-linejoin="round"/>
<path d="M539.499 327.798C565.49 250.253 610.921 205.534 654.5 216.216C667.388 219.349 680.206 227.039 691.314 241.565C715.453 272.968 729.552 334.349 731.617 395.801C733.682 457.324 724.995 518.634 711.75 573.108C675.079 724.21 607.218 822.69 539.428 909.492" stroke="url(#paint7_radial_1515_961)" stroke-width="3" stroke-linecap="round" stroke-linejoin="round"/>
<path d="M539.5 346.527C555.094 271.474 582.367 228.251 608.5 238.505C616.262 241.567 623.881 248.972 630.574 263C645.03 293.406 653.503 352.793 654.785 412.322C656.067 471.852 650.797 531.239 642.893 583.862C620.89 730.122 580.159 825.397 539.5 909.422" stroke="url(#paint8_linear_1515_961)" stroke-width="3" stroke-linecap="round" stroke-linejoin="round"/>
<path d="M539.5 346.527C555.094 271.474 582.367 228.251 608.5 238.505C616.262 241.567 623.881 248.972 630.574 263C645.03 293.406 653.503 352.793 654.785 412.322C656.067 471.852 650.797 531.239 642.893 583.862C620.89 730.122 580.159 825.397 539.5 909.422" stroke="url(#paint9_radial_1515_961)" stroke-width="3" stroke-linecap="round" stroke-linejoin="round"/>
<path d="M539.499 377.504C544.698 306.581 553.812 265.708 562.5 275.463C565.063 278.312 567.627 285.361 569.834 298.606C574.676 327.302 577.453 383.414 577.88 439.668C578.307 495.922 576.527 552.033 573.893 601.807C566.558 740.021 552.958 830.099 539.428 909.424" stroke="url(#paint10_linear_1515_961)" stroke-width="3" stroke-linecap="round" stroke-linejoin="round"/>
<path d="M539.499 377.504C544.698 306.581 553.812 265.708 562.5 275.463C565.063 278.312 567.627 285.361 569.834 298.606C574.676 327.302 577.453 383.414 577.88 439.668C578.307 495.922 576.527 552.033 573.893 601.807C566.558 740.021 552.958 830.099 539.428 909.424" stroke="url(#paint11_radial_1515_961)" stroke-width="3" stroke-linecap="round" stroke-linejoin="round"/>
<path d="M539.5 377.504C534.302 306.581 525.187 265.708 516.5 275.463C513.936 278.312 511.373 285.361 509.165 298.606C504.323 327.302 501.546 383.414 501.119 439.668C500.692 495.922 502.472 552.033 505.107 601.807C512.441 740.021 526.042 830.099 539.571 909.424" stroke="url(#paint12_linear_1515_961)" stroke-width="3" stroke-linecap="round" stroke-linejoin="round"/>
<path d="M539.5 377.504C534.302 306.581 525.187 265.708 516.5 275.463C513.936 278.312 511.373 285.361 509.165 298.606C504.323 327.302 501.546 383.414 501.119 439.668C500.692 495.922 502.472 552.033 505.107 601.807C512.441 740.021 526.042 830.099 539.571 909.424" stroke="url(#paint13_radial_1515_961)" stroke-width="3" stroke-linecap="round" stroke-linejoin="round"/>
<path d="M539.5 346.527C523.905 271.474 496.633 228.251 470.5 238.505C462.738 241.567 455.119 248.972 448.425 263C433.97 293.406 425.497 352.793 424.215 412.322C422.933 471.852 428.203 531.239 436.107 583.862C458.11 730.122 498.84 825.397 539.5 909.422" stroke="url(#paint14_linear_1515_961)" stroke-width="3" stroke-linecap="round" stroke-linejoin="round"/>
<path d="M539.5 346.527C523.905 271.474 496.633 228.251 470.5 238.505C462.738 241.567 455.119 248.972 448.425 263C433.97 293.406 425.497 352.793 424.215 412.322C422.933 471.852 428.203 531.239 436.107 583.862C458.11 730.122 498.84 825.397 539.5 909.422" stroke="url(#paint15_radial_1515_961)" stroke-width="3" stroke-linecap="round" stroke-linejoin="round"/>
<path d="M539.5 327.798C513.509 250.253 468.079 205.534 424.5 216.216C411.612 219.349 398.794 227.039 387.686 241.565C363.546 272.968 349.447 334.349 347.382 395.801C345.317 457.324 354.005 518.634 367.249 573.108C403.921 724.21 471.782 822.69 539.572 909.492" stroke="url(#paint16_linear_1515_961)" stroke-width="3" stroke-linecap="round" stroke-linejoin="round"/>
<path d="M539.5 327.798C513.509 250.253 468.079 205.534 424.5 216.216C411.612 219.349 398.794 227.039 387.686 241.565C363.546 272.968 349.447 334.349 347.382 395.801C345.317 457.324 354.005 518.634 367.249 573.108C403.921 724.21 471.782 822.69 539.572 909.492" stroke="url(#paint17_radial_1515_961)" stroke-width="3" stroke-linecap="round" stroke-linejoin="round"/>
<path d="M539.5 313.134C503.113 233.667 439.525 187.809 378.429 198.704C360.413 201.908 342.469 209.813 326.874 224.695C293.051 256.881 273.326 319.757 270.407 382.846C267.487 445.936 279.735 508.813 298.178 564.568C349.518 719.516 444.509 820.488 539.5 909.426" stroke="url(#paint18_linear_1515_961)" stroke-width="3" stroke-linecap="round" stroke-linejoin="round"/>
<path d="M539.5 313.134C503.113 233.667 439.525 187.809 378.429 198.704C360.413 201.908 342.469 209.813 326.874 224.695C293.051 256.881 273.326 319.757 270.407 382.846C267.487 445.936 279.735 508.813 298.178 564.568C349.518 719.516 444.509 820.488 539.5 909.426" stroke="url(#paint19_radial_1515_961)" stroke-width="3" stroke-linecap="round" stroke-linejoin="round"/>
<path d="M539.5 301.741C492.717 220.707 410.971 174.066 332.429 185.103C309.215 188.379 286.215 196.425 266.135 211.592C222.698 244.348 197.277 308.506 193.503 372.735C189.729 436.964 205.466 501.122 229.249 557.946C295.259 715.813 417.38 818.708 539.5 909.426" stroke="url(#paint20_linear_1515_961)" stroke-width="3" stroke-linecap="round" stroke-linejoin="round"/>
<path d="M539.5 301.741C492.717 220.707 410.971 174.066 332.429 185.103C309.215 188.379 286.215 196.425 266.135 211.592C222.698 244.348 197.277 308.506 193.503 372.735C189.729 436.964 205.466 501.122 229.249 557.946C295.259 715.813 417.38 818.708 539.5 909.426" stroke="url(#paint21_radial_1515_961)" stroke-width="3" stroke-linecap="round" stroke-linejoin="round"/>
<path d="M539.5 291.269C482.32 208.882 382.416 161.387 286.428 172.638C258.088 175.984 229.961 184.173 205.394 199.554C152.273 232.879 121.227 298.105 116.67 363.474C112.112 428.842 131.267 494.068 160.32 551.888C240.998 712.461 390.249 817.137 539.5 909.35" stroke="url(#paint22_linear_1515_961)" stroke-width="3" stroke-linecap="round" stroke-linejoin="round"/>
<path d="M539.5 291.269C482.32 208.882 382.416 161.387 286.428 172.638C258.088 175.984 229.961 184.173 205.394 199.554C152.273 232.879 121.227 298.105 116.67 363.474C112.112 428.842 131.267 494.068 160.32 551.888C240.998 712.461 390.249 817.137 539.5 909.35" stroke="url(#paint23_radial_1515_961)" stroke-width="3" stroke-linecap="round" stroke-linejoin="round"/>
<path d="M116.243 393.671C118.308 448.786 135.754 503.046 160.32 551.965C240.998 712.538 390.249 817.213 539.5 909.427C688.751 817.213 838.002 712.538 918.68 551.965C943.247 503.046 960.693 448.786 962.758 393.671" stroke="url(#paint24_linear_1515_961)" stroke-width="3" stroke-linecap="round" stroke-linejoin="round"/>
<path d="M116.243 393.671C118.308 448.786 135.754 503.046 160.32 551.965C240.998 712.538 390.249 817.213 539.5 909.427C688.751 817.213 838.002 712.538 918.68 551.965C943.247 503.046 960.693 448.786 962.758 393.671" stroke="url(#paint25_radial_1515_961)" stroke-width="3" stroke-linecap="round" stroke-linejoin="round"/>
<path d="M962.758 393.671C962.402 402.501 961.476 411.331 959.909 420.089C953.928 453.058 939.402 485.101 919.962 515.009C906.076 536.3 889.841 556.594 871.612 576.318C851.674 597.965 829.457 618.972 805.887 639.408C726.064 708.408 630.147 770.359 539.5 832.238C448.924 770.359 352.937 708.408 273.184 639.48C249.614 619.114 227.398 598.036 207.459 576.389C189.302 556.665 173.066 536.371 159.11 515.08C139.67 485.173 125.072 453.2 119.162 420.16C117.596 411.402 116.599 402.572 116.314 393.742" stroke="url(#paint26_linear_1515_961)" stroke-width="3" stroke-linecap="round" stroke-linejoin="round"/>
<path d="M962.758 393.671C962.402 402.501 961.476 411.331 959.909 420.089C953.928 453.058 939.402 485.101 919.962 515.009C906.076 536.3 889.841 556.594 871.612 576.318C851.674 597.965 829.457 618.972 805.887 639.408C726.064 708.408 630.147 770.359 539.5 832.238C448.924 770.359 352.937 708.408 273.184 639.48C249.614 619.114 227.398 598.036 207.459 576.389C189.302 556.665 173.066 536.371 159.11 515.08C139.67 485.173 125.072 453.2 119.162 420.16C117.596 411.402 116.599 402.572 116.314 393.742" stroke="url(#paint27_radial_1515_961)" stroke-width="3" stroke-linecap="round" stroke-linejoin="round"/>
<path d="M962.758 393.671C962.544 399.795 961.69 405.919 960.266 412.043C954.783 434.9 940.683 456.903 921.172 478.052C907.216 493.077 890.696 507.603 871.897 522.557C851.247 538.934 828.247 555.81 803.965 572.758C721.863 630.293 625.305 690.179 539.5 754.978C453.695 690.179 357.138 630.293 275.035 572.758C250.754 555.739 227.754 538.863 207.104 522.557C188.305 507.674 171.785 493.077 157.828 478.052C138.317 456.974 124.218 434.9 118.735 412.043C117.311 405.99 116.456 399.866 116.243 393.742" stroke="url(#paint28_linear_1515_961)" stroke-width="3" stroke-linecap="round" stroke-linejoin="round"/>
<path d="M962.758 393.671C962.544 399.795 961.69 405.919 960.266 412.043C954.783 434.9 940.683 456.903 921.172 478.052C907.216 493.077 890.696 507.603 871.897 522.557C851.247 538.934 828.247 555.81 803.965 572.758C721.863 630.293 625.305 690.179 539.5 754.978C453.695 690.179 357.138 630.293 275.035 572.758C250.754 555.739 227.754 538.863 207.104 522.557C188.305 507.674 171.785 493.077 157.828 478.052C138.317 456.974 124.218 434.9 118.735 412.043C117.311 405.99 116.456 399.866 116.243 393.742" stroke="url(#paint29_radial_1515_961)" stroke-width="3" stroke-linecap="round" stroke-linejoin="round"/>
<path d="M962.758 393.672C962.616 397.161 961.904 400.579 960.551 403.926C955.566 416.672 941.894 428.777 922.312 441.024C908.356 449.783 891.48 458.613 872.111 468.653C850.82 479.69 826.965 492.436 801.971 506.037C717.519 552.108 620.464 609.929 539.429 677.647C458.395 609.929 361.339 552.108 276.887 506.037C251.965 492.436 228.039 479.761 206.819 468.653C187.451 458.541 170.575 449.712 156.618 440.954C137.036 428.706 123.435 416.6 118.379 403.854C117.026 400.508 116.314 397.09 116.172 393.6" stroke="url(#paint30_linear_1515_961)" stroke-width="3" stroke-linecap="round" stroke-linejoin="round"/>
<path d="M962.758 393.672C962.616 397.161 961.904 400.579 960.551 403.926C955.566 416.672 941.894 428.777 922.312 441.024C908.356 449.783 891.48 458.613 872.111 468.653C850.82 479.69 826.965 492.436 801.971 506.037C717.519 552.108 620.464 609.929 539.429 677.647C458.395 609.929 361.339 552.108 276.887 506.037C251.965 492.436 228.039 479.761 206.819 468.653C187.451 458.541 170.575 449.712 156.618 440.954C137.036 428.706 123.435 416.6 118.379 403.854C117.026 400.508 116.314 397.09 116.172 393.6" stroke="url(#paint31_radial_1515_961)" stroke-width="3" stroke-linecap="round" stroke-linejoin="round"/>
<path d="M962.758 393.671C962.758 394.454 962.117 395.166 960.906 395.879C956.349 398.442 943.104 400.65 923.594 404.068C909.566 406.489 892.405 409.621 872.467 414.891C850.535 420.659 825.826 429.204 800.191 439.386C713.46 473.993 615.835 529.748 539.5 600.386C463.237 529.748 365.611 473.993 278.809 439.386C253.175 429.132 228.466 420.659 206.534 414.891C186.596 409.621 169.435 406.489 155.407 404.068C135.896 400.65 122.58 398.513 118.094 395.879C116.884 395.166 116.314 394.454 116.243 393.671" stroke="url(#paint32_linear_1515_961)" stroke-width="3" stroke-linecap="round" stroke-linejoin="round"/>
<path d="M962.758 393.671C962.758 394.454 962.117 395.166 960.906 395.879C956.349 398.442 943.104 400.65 923.594 404.068C909.566 406.489 892.405 409.621 872.467 414.891C850.535 420.659 825.826 429.204 800.191 439.386C713.46 473.993 615.835 529.748 539.5 600.386C463.237 529.748 365.611 473.993 278.809 439.386C253.175 429.132 228.466 420.659 206.534 414.891C186.596 409.621 169.435 406.489 155.407 404.068C135.896 400.65 122.58 398.513 118.094 395.879C116.884 395.166 116.314 394.454 116.243 393.671" stroke="url(#paint33_radial_1515_961)" stroke-width="3" stroke-linecap="round" stroke-linejoin="round"/>
<path d="M962.758 393.666C962.829 391.743 962.331 389.749 961.262 387.755C957.204 380.207 944.315 372.375 924.804 367.034C910.705 363.189 893.259 360.554 872.752 361.052C850.179 361.551 824.544 365.895 798.269 372.731C709.188 395.873 610.993 449.563 539.5 523.121C468.008 449.492 369.813 395.802 280.732 372.731C254.457 365.895 228.822 361.551 206.249 361.052C185.742 360.625 168.225 363.189 154.125 367.034C134.615 372.375 121.726 380.207 117.667 387.755C116.599 389.749 116.101 391.743 116.172 393.666" stroke="url(#paint34_linear_1515_961)" stroke-width="3" stroke-linecap="round" stroke-linejoin="round"/>
<path d="M962.758 393.666C962.829 391.743 962.331 389.749 961.262 387.755C957.204 380.207 944.315 372.375 924.804 367.034C910.705 363.189 893.259 360.554 872.752 361.052C850.179 361.551 824.544 365.895 798.269 372.731C709.188 395.873 610.993 449.563 539.5 523.121C468.008 449.492 369.813 395.802 280.732 372.731C254.457 365.895 228.822 361.551 206.249 361.052C185.742 360.625 168.225 363.189 154.125 367.034C134.615 372.375 121.726 380.207 117.667 387.755C116.599 389.749 116.101 391.743 116.172 393.666" stroke="url(#paint35_radial_1515_961)" stroke-width="3" stroke-linecap="round" stroke-linejoin="round"/>
<path d="M962.758 393.665C962.9 389.037 962.615 384.408 961.618 379.708C957.987 362.049 945.526 344.176 926.015 330.077C911.844 319.894 894.114 311.634 872.965 307.219C849.752 302.377 823.262 302.591 796.275 306.009C704.916 317.687 606.151 369.312 539.429 445.789C472.708 369.241 373.943 317.616 282.584 306.009C255.596 302.591 229.178 302.377 205.893 307.219C184.745 311.563 167.014 319.823 152.844 330.077C133.333 344.176 120.872 362.049 117.24 379.708C116.314 384.408 115.958 389.037 116.101 393.665" stroke="url(#paint36_linear_1515_961)" stroke-width="3" stroke-linecap="round" stroke-linejoin="round"/>
<path d="M962.758 393.665C962.9 389.037 962.615 384.408 961.618 379.708C957.987 362.049 945.526 344.176 926.015 330.077C911.844 319.894 894.114 311.634 872.965 307.219C849.752 302.377 823.262 302.591 796.275 306.009C704.916 317.687 606.151 369.312 539.429 445.789C472.708 369.241 373.943 317.616 282.584 306.009C255.596 302.591 229.178 302.377 205.893 307.219C184.745 311.563 167.014 319.823 152.844 330.077C133.333 344.176 120.872 362.049 117.24 379.708C116.314 384.408 115.958 389.037 116.101 393.665" stroke="url(#paint37_radial_1515_961)" stroke-width="3" stroke-linecap="round" stroke-linejoin="round"/>
<path d="M962.758 393.665C963.043 386.331 962.758 378.996 961.975 371.662C958.842 343.891 946.879 315.978 927.225 293.12C913.055 276.529 894.968 262.643 873.25 253.458C849.324 243.346 822.052 239.358 794.423 239.43C700.714 239.572 601.451 289.204 539.429 368.671C477.479 289.204 378.144 239.643 284.435 239.501C256.807 239.501 229.463 243.418 205.608 253.6C183.89 262.786 165.803 276.671 151.633 293.262C132.051 316.12 120.017 343.962 116.955 371.805C116.101 379.139 115.887 386.545 116.172 393.808" stroke="url(#paint38_linear_1515_961)" stroke-width="3" stroke-linecap="round" stroke-linejoin="round"/>
<path d="M962.758 393.665C963.043 386.331 962.758 378.996 961.975 371.662C958.842 343.891 946.879 315.978 927.225 293.12C913.055 276.529 894.968 262.643 873.25 253.458C849.324 243.346 822.052 239.358 794.423 239.43C700.714 239.572 601.451 289.204 539.429 368.671C477.479 289.204 378.144 239.643 284.435 239.501C256.807 239.501 229.463 243.418 205.608 253.6C183.89 262.786 165.803 276.671 151.633 293.262C132.051 316.12 120.017 343.962 116.955 371.805C116.101 379.139 115.887 386.545 116.172 393.808" stroke="url(#paint39_radial_1515_961)" stroke-width="3" stroke-linecap="round" stroke-linejoin="round"/>
<path d="M962.758 393.668C963.114 383.628 963.043 373.588 962.331 363.548C957.773 298.179 926.727 232.953 873.606 199.628C849.039 184.247 820.912 176.058 792.572 172.711C696.584 161.389 596.68 208.885 539.5 291.343C482.321 208.956 382.416 161.46 286.429 172.711C258.088 176.058 229.961 184.247 205.395 199.628C152.274 232.953 121.227 298.179 116.67 363.548C115.958 373.588 115.887 383.628 116.243 393.668" stroke="url(#paint40_linear_1515_961)" stroke-width="3" stroke-linecap="round" stroke-linejoin="round"/>
<path d="M962.758 393.668C963.114 383.628 963.043 373.588 962.331 363.548C957.773 298.179 926.727 232.953 873.606 199.628C849.039 184.247 820.912 176.058 792.572 172.711C696.584 161.389 596.68 208.885 539.5 291.343C482.321 208.956 382.416 161.46 286.429 172.711C258.088 176.058 229.961 184.247 205.395 199.628C152.274 232.953 121.227 298.179 116.67 363.548C115.958 373.588 115.887 383.628 116.243 393.668" stroke="url(#paint41_radial_1515_961)" stroke-width="3" stroke-linecap="round" stroke-linejoin="round"/>
<path d="M539.5 377.503V909.423" stroke="url(#paint42_linear_1515_961)" stroke-width="3" stroke-linecap="round" stroke-linejoin="round"/>
<path d="M539.5 377.503V909.423" stroke="url(#paint43_radial_1515_961)" stroke-width="3" stroke-linecap="round" stroke-linejoin="round"/>
<path d="M539.5 909.429C390.249 817.215 240.998 712.54 160.32 551.967C131.267 494.146 112.112 428.921 116.67 363.552C121.227 298.184 152.273 232.957 205.394 199.632C229.961 184.251 258.088 176.062 286.428 172.716C382.416 161.394 482.32 208.889 539.5 291.348C596.68 208.96 696.584 161.465 792.571 172.716C820.912 176.062 849.039 184.251 873.605 199.632C926.726 232.957 957.773 298.184 962.33 363.552C966.887 428.921 947.733 494.146 918.68 551.967C838.002 712.54 688.751 817.215 539.5 909.429Z" stroke="url(#paint44_linear_1515_961)" stroke-width="3" stroke-linecap="round" stroke-linejoin="round"/>
<path d="M539.5 909.429C390.249 817.215 240.998 712.54 160.32 551.967C131.267 494.146 112.112 428.921 116.67 363.552C121.227 298.184 152.273 232.957 205.394 199.632C229.961 184.251 258.088 176.062 286.428 172.716C382.416 161.394 482.32 208.889 539.5 291.348C596.68 208.96 696.584 161.465 792.571 172.716C820.912 176.062 849.039 184.251 873.605 199.632C926.726 232.957 957.773 298.184 962.33 363.552C966.887 428.921 947.733 494.146 918.68 551.967C838.002 712.54 688.751 817.215 539.5 909.429Z" stroke="url(#paint45_radial_1515_961)" stroke-width="3" stroke-linecap="round" stroke-linejoin="round"/>
<defs>
<linearGradient id="paint0_linear_1515_961" x1="568.916" y1="189.523" x2="1142.64" y2="578.451" gradientUnits="userSpaceOnUse">
<stop stop-color="#E31717"/>
<stop offset="1" stop-color="#FFB800"/>
</linearGradient>
<radialGradient id="paint1_radial_1515_961" cx="0" cy="0" r="1" gradientUnits="userSpaceOnUse" gradientTransform="translate(879.439 833.492) rotate(-115.711) scale(496.179 513.607)">
<stop stop-color="#FFB800"/>
<stop offset="0.986758" stop-color="#E31717" stop-opacity="0"/>
</radialGradient>
<linearGradient id="paint2_linear_1515_961" x1="563.572" y1="201.656" x2="1083.33" y2="494.928" gradientUnits="userSpaceOnUse">
<stop stop-color="#E31717"/>
<stop offset="1" stop-color="#FFB800"/>
</linearGradient>
<radialGradient id="paint3_radial_1515_961" cx="0" cy="0" r="1" gradientUnits="userSpaceOnUse" gradientTransform="translate(817.677 834.773) rotate(-111.84) scale(473.505 432.996)">
<stop stop-color="#FFB800"/>
<stop offset="0.986758" stop-color="#E31717" stop-opacity="0"/>
</radialGradient>
<linearGradient id="paint4_linear_1515_961" x1="558.221" y1="214.931" x2="1002.32" y2="413.539" gradientUnits="userSpaceOnUse">
<stop stop-color="#E31717"/>
<stop offset="1" stop-color="#FFB800"/>
</linearGradient>
<radialGradient id="paint5_radial_1515_961" cx="0" cy="0" r="1" gradientUnits="userSpaceOnUse" gradientTransform="translate(755.843 836.174) rotate(-107.622) scale(452.513 345.762)">
<stop stop-color="#FFB800"/>
<stop offset="0.986758" stop-color="#E31717" stop-opacity="0"/>
</radialGradient>
<linearGradient id="paint6_linear_1515_961" x1="552.799" y1="232.03" x2="896.555" y2="344.586" gradientUnits="userSpaceOnUse">
<stop stop-color="#E31717"/>
<stop offset="1" stop-color="#FFB800"/>
</linearGradient>
<radialGradient id="paint7_radial_1515_961" cx="0" cy="0" r="1" gradientUnits="userSpaceOnUse" gradientTransform="translate(693.94 838.036) rotate(-103.092) scale(431.927 252.366)">
<stop stop-color="#FFB800"/>
<stop offset="0.986758" stop-color="#E31717" stop-opacity="0"/>
</radialGradient>
<linearGradient id="paint8_linear_1515_961" x1="547.521" y1="253.829" x2="766.816" y2="298.342" gradientUnits="userSpaceOnUse">
<stop stop-color="#E31717"/>
<stop offset="1" stop-color="#FFB800"/>
</linearGradient>
<radialGradient id="paint9_radial_1515_961" cx="0" cy="0" r="1" gradientUnits="userSpaceOnUse" gradientTransform="translate(632.192 840.273) rotate(-98.2039) scale(411.329 153.845)">
<stop stop-color="#FFB800"/>
<stop offset="0.986758" stop-color="#E31717" stop-opacity="0"/>
</radialGradient>
<linearGradient id="paint10_linear_1515_961" x1="542.104" y1="289.927" x2="617.87" y2="295.355" gradientUnits="userSpaceOnUse">
<stop stop-color="#E31717"/>
<stop offset="1" stop-color="#FFB800"/>
</linearGradient>
<radialGradient id="paint11_radial_1515_961" cx="0" cy="0" r="1" gradientUnits="userSpaceOnUse" gradientTransform="translate(570.344 844.082) rotate(-92.9131) scale(385.202 51.7759)">
<stop stop-color="#FFB800"/>
<stop offset="0.986758" stop-color="#E31717" stop-opacity="0"/>
</radialGradient>
<linearGradient id="paint12_linear_1515_961" x1="503.731" y1="289.927" x2="579.498" y2="295.355" gradientUnits="userSpaceOnUse">
<stop stop-color="#E31717"/>
<stop offset="1" stop-color="#FFB800"/>
</linearGradient>
<radialGradient id="paint13_radial_1515_961" cx="0" cy="0" r="1" gradientUnits="userSpaceOnUse" gradientTransform="translate(531.972 844.082) rotate(-92.9131) scale(385.202 51.7762)">
<stop stop-color="#FFB800"/>
<stop offset="0.986758" stop-color="#E31717" stop-opacity="0"/>
</radialGradient>
<linearGradient id="paint14_linear_1515_961" x1="432.044" y1="253.829" x2="651.339" y2="298.342" gradientUnits="userSpaceOnUse">
<stop stop-color="#E31717"/>
<stop offset="1" stop-color="#FFB800"/>
</linearGradient>
<radialGradient id="paint15_radial_1515_961" cx="0" cy="0" r="1" gradientUnits="userSpaceOnUse" gradientTransform="translate(516.715 840.273) rotate(-98.2039) scale(411.329 153.845)">
<stop stop-color="#FFB800"/>
<stop offset="0.986758" stop-color="#E31717" stop-opacity="0"/>
</radialGradient>
<linearGradient id="paint16_linear_1515_961" x1="360.45" y1="232.03" x2="704.206" y2="344.586" gradientUnits="userSpaceOnUse">
<stop stop-color="#E31717"/>
<stop offset="1" stop-color="#FFB800"/>
</linearGradient>
<radialGradient id="paint17_radial_1515_961" cx="0" cy="0" r="1" gradientUnits="userSpaceOnUse" gradientTransform="translate(501.591 838.036) rotate(-103.092) scale(431.927 252.366)">
<stop stop-color="#FFB800"/>
<stop offset="0.986758" stop-color="#E31717" stop-opacity="0"/>
</radialGradient>
<linearGradient id="paint18_linear_1515_961" x1="288.698" y1="214.931" x2="732.799" y2="413.54" gradientUnits="userSpaceOnUse">
<stop stop-color="#E31717"/>
<stop offset="1" stop-color="#FFB800"/>
</linearGradient>
<radialGradient id="paint19_radial_1515_961" cx="0" cy="0" r="1" gradientUnits="userSpaceOnUse" gradientTransform="translate(486.321 836.174) rotate(-107.622) scale(452.513 345.762)">
<stop stop-color="#FFB800"/>
<stop offset="0.986758" stop-color="#E31717" stop-opacity="0"/>
</radialGradient>
<linearGradient id="paint20_linear_1515_961" x1="217.017" y1="201.656" x2="736.775" y2="494.928" gradientUnits="userSpaceOnUse">
<stop stop-color="#E31717"/>
<stop offset="1" stop-color="#FFB800"/>
</linearGradient>
<radialGradient id="paint21_radial_1515_961" cx="0" cy="0" r="1" gradientUnits="userSpaceOnUse" gradientTransform="translate(471.122 834.773) rotate(-111.84) scale(473.505 432.996)">
<stop stop-color="#FFB800"/>
<stop offset="0.986758" stop-color="#E31717" stop-opacity="0"/>
</radialGradient>
<linearGradient id="paint22_linear_1515_961" x1="145.416" y1="189.468" x2="719.127" y2="578.4" gradientUnits="userSpaceOnUse">
<stop stop-color="#E31717"/>
<stop offset="1" stop-color="#FFB800"/>
</linearGradient>
<radialGradient id="paint23_radial_1515_961" cx="0" cy="0" r="1" gradientUnits="userSpaceOnUse" gradientTransform="translate(455.939 833.42) rotate(-115.712) scale(496.169 513.604)">
<stop stop-color="#FFB800"/>
<stop offset="0.986758" stop-color="#E31717" stop-opacity="0"/>
</radialGradient>
<linearGradient id="paint24_linear_1515_961" x1="175.042" y1="406.571" x2="526.441" y2="1088.25" gradientUnits="userSpaceOnUse">
<stop stop-color="#E31717"/>
<stop offset="1" stop-color="#FFB800"/>
</linearGradient>
<radialGradient id="paint25_radial_1515_961" cx="0" cy="0" r="1" gradientUnits="userSpaceOnUse" gradientTransform="translate(795.732 856.388) rotate(-144.029) scale(531.643 669.269)">
<stop stop-color="#FFB800"/>
<stop offset="0.986758" stop-color="#E31717" stop-opacity="0"/>
</radialGradient>
<linearGradient id="paint26_linear_1515_961" x1="175.108" y1="404.641" x2="444.895" y2="1020.06" gradientUnits="userSpaceOnUse">
<stop stop-color="#E31717"/>
<stop offset="1" stop-color="#FFB800"/>
</linearGradient>
<radialGradient id="paint27_radial_1515_961" cx="0" cy="0" r="1" gradientUnits="userSpaceOnUse" gradientTransform="translate(795.746 787.137) rotate(-148.318) scale(505.578 598.395)">
<stop stop-color="#FFB800"/>
<stop offset="0.986758" stop-color="#E31717" stop-opacity="0"/>
</radialGradient>
<linearGradient id="paint28_linear_1515_961" x1="175.042" y1="402.708" x2="368.136" y2="937.418" gradientUnits="userSpaceOnUse">
<stop stop-color="#E31717"/>
<stop offset="1" stop-color="#FFB800"/>
</linearGradient>
<radialGradient id="paint29_radial_1515_961" cx="0" cy="0" r="1" gradientUnits="userSpaceOnUse" gradientTransform="translate(795.732 717.822) rotate(-153.05) scale(482.686 516.402)">
<stop stop-color="#FFB800"/>
<stop offset="0.986758" stop-color="#E31717" stop-opacity="0"/>
</radialGradient>
<linearGradient id="paint30_linear_1515_961" x1="174.976" y1="400.705" x2="299.811" y2="840.457" gradientUnits="userSpaceOnUse">
<stop stop-color="#E31717"/>
<stop offset="1" stop-color="#FFB800"/>
</linearGradient>
<radialGradient id="paint31_radial_1515_961" cx="0" cy="0" r="1" gradientUnits="userSpaceOnUse" gradientTransform="translate(795.718 648.437) rotate(-158.215) scale(463.4 422.909)">
<stop stop-color="#FFB800"/>
<stop offset="0.986758" stop-color="#E31717" stop-opacity="0"/>
</radialGradient>
<linearGradient id="paint32_linear_1515_961" x1="175.042" y1="398.842" x2="243.566" y2="730.503" gradientUnits="userSpaceOnUse">
<stop stop-color="#E31717"/>
<stop offset="1" stop-color="#FFB800"/>
</linearGradient>
<radialGradient id="paint33_radial_1515_961" cx="0" cy="0" r="1" gradientUnits="userSpaceOnUse" gradientTransform="translate(795.732 579.128) rotate(-163.781) scale(448.103 318.252)">
<stop stop-color="#FFB800"/>
<stop offset="0.986758" stop-color="#E31717" stop-opacity="0"/>
</radialGradient>
<linearGradient id="paint34_linear_1515_961" x1="174.97" y1="365.047" x2="217.793" y2="629.338" gradientUnits="userSpaceOnUse">
<stop stop-color="#E31717"/>
<stop offset="1" stop-color="#FFB800"/>
</linearGradient>
<radialGradient id="paint35_radial_1515_961" cx="0" cy="0" r="1" gradientUnits="userSpaceOnUse" gradientTransform="translate(795.722 506.448) rotate(-167.15) scale(441.366 253.444)">
<stop stop-color="#FFB800"/>
<stop offset="0.986758" stop-color="#E31717" stop-opacity="0"/>
</radialGradient>
<linearGradient id="paint36_linear_1515_961" x1="174.884" y1="307.064" x2="208.056" y2="540.379" gradientUnits="userSpaceOnUse">
<stop stop-color="#E31717"/>
<stop offset="1" stop-color="#FFB800"/>
</linearGradient>
<radialGradient id="paint37_radial_1515_961" cx="0" cy="0" r="1" gradientUnits="userSpaceOnUse" gradientTransform="translate(795.726 431.157) rotate(-168.681) scale(438.912 223.698)">
<stop stop-color="#FFB800"/>
<stop offset="0.986758" stop-color="#E31717" stop-opacity="0"/>
</radialGradient>
<linearGradient id="paint38_linear_1515_961" x1="174.873" y1="243.29" x2="213.783" y2="495.554" gradientUnits="userSpaceOnUse">
<stop stop-color="#E31717"/>
<stop offset="1" stop-color="#FFB800"/>
</linearGradient>
<radialGradient id="paint39_radial_1515_961" cx="0" cy="0" r="1" gradientUnits="userSpaceOnUse" gradientTransform="translate(795.781 377.932) rotate(-167.748) scale(440.453 241.891)">
<stop stop-color="#FFB800"/>
<stop offset="0.986758" stop-color="#E31717" stop-opacity="0"/>
</radialGradient>
<linearGradient id="paint40_linear_1515_961" x1="174.862" y1="176.623" x2="253.78" y2="531.489" gradientUnits="userSpaceOnUse">
<stop stop-color="#E31717"/>
<stop offset="1" stop-color="#FFB800"/>
</linearGradient>
<radialGradient id="paint41_radial_1515_961" cx="0" cy="0" r="1" gradientUnits="userSpaceOnUse" gradientTransform="translate(795.858 370.775) rotate(-162.615) scale(451.089 340.628)">
<stop stop-color="#FFB800"/>
<stop offset="0.986758" stop-color="#E31717" stop-opacity="0"/>
</radialGradient>
<linearGradient id="paint42_linear_1515_961" x1="539.569" y1="390.808" x2="541.547" y2="390.812" gradientUnits="userSpaceOnUse">
<stop stop-color="#E31717"/>
<stop offset="1" stop-color="#FFB800"/>
</linearGradient>
<radialGradient id="paint43_radial_1515_961" cx="0" cy="0" r="1" gradientUnits="userSpaceOnUse" gradientTransform="translate(540.303 854.722) rotate(-90.0904) scale(322.058 1.34603)">
<stop stop-color="#FFB800"/>
<stop offset="0.986758" stop-color="#E31717" stop-opacity="0"/>
</radialGradient>
<linearGradient id="paint44_linear_1515_961" x1="174.833" y1="189.527" x2="764.903" y2="989.552" gradientUnits="userSpaceOnUse">
<stop stop-color="#E31717"/>
<stop offset="1" stop-color="#FFB800"/>
</linearGradient>
<radialGradient id="paint45_radial_1515_961" cx="0" cy="0" r="1" gradientUnits="userSpaceOnUse" gradientTransform="translate(795.878 833.497) rotate(-133.92) scale(620.646 821.212)">
<stop stop-color="#FFB800"/>
<stop offset="0.986758" stop-color="#E31717" stop-opacity="0"/>
</radialGradient>
</defs>
</svg>
