<svg width="1080" height="1080" viewBox="0 0 1080 1080" fill="none" xmlns="http://www.w3.org/2000/svg">
<g clip-path="url(#clip0_1516_215)">
<rect width="1080" height="1080" rx="180" fill="#0E0E0E"/>
<path d="M1078.95 153.526L947.492 379.105L822.005 626.019C807.4 654.755 765.854 653.258 753.356 623.544L708.698 517.371C696.318 487.94 655.306 486.107 640.35 514.317L521.382 738.727C509.455 761.224 479.167 765.77 461.162 747.765L420.71 707.313C407.382 693.985 386.281 692.491 371.208 703.808L235 806.074H-32" stroke="white" stroke-width="5.25824"/>
<path d="M371.208 703.808L235 806.074H1042.14C1063.05 806.074 1080 789.124 1080 768.215V153L947.492 379.105L822.005 626.018C807.4 654.755 765.854 653.258 753.356 623.544L708.698 517.371C696.318 487.94 655.306 486.107 640.35 514.317L521.382 738.727C509.455 761.224 479.167 765.77 461.162 747.765L420.71 707.313C407.382 693.985 386.281 692.491 371.208 703.808Z" fill="url(#paint0_linear_1516_215)" fill-opacity="0.73"/>
<path d="M231.983 794.126L289.143 735.029C289.896 734.252 290.996 733.917 292.054 734.143L320.097 740.146C321.437 740.433 322.435 741.557 322.562 742.921L325.207 771.279C325.306 772.339 324.859 773.377 324.022 774.035L259.426 824.784C258.571 825.456 257.43 825.637 256.409 825.263L237.572 818.354C236.578 817.99 235.836 817.148 235.597 816.117L231.182 797.012C230.942 795.977 231.244 794.89 231.983 794.126Z" fill="white"/>
<path d="M264.003 733.022L220.939 781.381C220.14 782.279 218.897 782.641 217.74 782.312L184.064 772.735C181.994 772.146 181.119 769.696 182.347 767.929L214.992 720.961C215.696 719.948 216.927 719.442 218.139 719.667L262.233 727.854C264.634 728.3 265.627 731.198 264.003 733.022Z" fill="white"/>
<path d="M323.72 799.884L270.824 837.232C269.841 837.926 269.342 839.12 269.539 840.307L275.266 874.847C275.618 876.969 277.954 878.115 279.848 877.094L330.191 849.94C331.276 849.355 331.918 848.188 331.83 846.958L328.657 802.223C328.484 799.787 325.715 798.475 323.72 799.884Z" fill="white"/>
<path d="M232.884 794.998L290.045 735.901C290.496 735.435 291.156 735.234 291.791 735.37L319.834 741.373C320.638 741.545 321.237 742.219 321.314 743.038L323.958 771.395C324.017 772.031 323.75 772.654 323.247 773.049L258.651 823.798C258.138 824.201 257.453 824.31 256.841 824.085L238.004 817.177C237.408 816.958 236.962 816.453 236.819 815.834L232.404 796.73C232.26 796.109 232.441 795.457 232.884 794.998ZM263.066 732.188L220.003 780.547C219.523 781.086 218.777 781.303 218.083 781.105L184.407 771.529C183.165 771.175 182.64 769.705 183.376 768.645L216.022 721.676C216.444 721.069 217.183 720.765 217.91 720.9L262.004 729.087C263.445 729.355 264.04 731.094 263.066 732.188ZM271.547 838.257L324.444 800.908C325.641 800.063 327.302 800.85 327.406 802.312L330.579 847.047C330.632 847.785 330.247 848.485 329.596 848.836L279.252 875.99C278.116 876.603 276.714 875.915 276.503 874.642L270.776 840.102C270.658 839.39 270.958 838.673 271.547 838.257Z" stroke="url(#paint1_linear_1516_215)" stroke-opacity="0.2" stroke-width="2.50841"/>
</g>
<defs>
<linearGradient id="paint0_linear_1516_215" x1="657.5" y1="379.105" x2="657.5" y2="806.074" gradientUnits="userSpaceOnUse">
<stop stop-color="white"/>
<stop offset="1" stop-color="white" stop-opacity="0"/>
</linearGradient>
<linearGradient id="paint1_linear_1516_215" x1="322.538" y1="740.84" x2="227.913" y2="825.356" gradientUnits="userSpaceOnUse">
<stop stop-color="white"/>
<stop offset="1" stop-color="white" stop-opacity="0"/>
</linearGradient>
<clipPath id="clip0_1516_215">
<rect width="1080" height="1080" rx="180" fill="white"/>
</clipPath>
</defs>
</svg>
