<svg width="100%" height="100%" viewBox="0 0 1080 1080" fill="none" xmlns="http://www.w3.org/2000/svg">
<rect width="1080" height="1080" rx="180" fill="#0E0E0E"/>
<path d="M138 743L267.519 645.756C281.851 634.995 301.916 636.416 314.589 649.089L353.054 687.554C370.175 704.675 398.976 700.353 410.317 678.96L523.443 465.572C537.663 438.747 576.662 440.49 588.433 468.476L630.898 569.435C642.783 597.689 682.288 599.113 696.175 571.787L805.493 356.689C811.633 344.609 824.036 337 837.586 337H941.5" stroke="url(#paint0_linear_1516_192)" stroke-width="5"/>
<path d="M138 743L267.519 645.756C281.851 634.995 301.916 636.416 314.589 649.089L353.054 687.554C370.175 704.675 398.976 700.353 410.317 678.96L523.443 465.572C537.663 438.747 576.662 440.49 588.433 468.476L630.898 569.435C642.783 597.689 682.288 599.113 696.175 571.787L805.493 356.689C811.633 344.609 824.036 337 837.586 337H941.5" stroke="url(#paint1_radial_1516_192)" stroke-width="5"/>
<path d="M267.519 645.756L138 743H905.5C925.382 743 941.5 726.882 941.5 707V337H837.586C824.036 337 811.633 344.609 805.493 356.689L696.175 571.787C682.288 599.113 642.783 597.689 630.898 569.435L588.433 468.476C576.662 440.49 537.663 438.747 523.443 465.572L410.317 678.96C398.976 700.353 370.175 704.675 353.054 687.554L314.589 649.089C301.916 636.416 281.851 634.995 267.519 645.756Z" fill="url(#paint2_linear_1516_192)"/>
<g filter="url(#filter0_f_1516_192)">
<ellipse cx="284.323" cy="633.671" rx="16.2071" ry="16.2045" transform="rotate(18.5976 284.323 633.671)" fill="url(#paint3_linear_1516_192)"/>
<ellipse cx="284.323" cy="633.671" rx="16.2071" ry="16.2045" transform="rotate(18.5976 284.323 633.671)" fill="url(#paint4_radial_1516_192)"/>
<ellipse cx="284.323" cy="633.671" rx="16.2071" ry="16.2045" transform="rotate(18.5976 284.323 633.671)" fill="url(#paint5_radial_1516_192)"/>
</g>
<g filter="url(#filter1_f_1516_192)">
<ellipse cx="288.583" cy="644.431" rx="16.2071" ry="16.2045" transform="rotate(18.5976 288.583 644.431)" fill="url(#paint6_linear_1516_192)"/>
<ellipse cx="288.583" cy="644.431" rx="16.2071" ry="16.2045" transform="rotate(18.5976 288.583 644.431)" fill="url(#paint7_radial_1516_192)"/>
</g>
<g style="mix-blend-mode:color-dodge" filter="url(#filter2_f_1516_192)">
<g filter="url(#filter3_f_1516_192)">
<ellipse cx="283.349" cy="635.149" rx="16.2071" ry="16.2045" transform="rotate(18.5976 283.349 635.149)" fill="url(#paint8_linear_1516_192)"/>
<ellipse cx="283.349" cy="635.149" rx="16.2071" ry="16.2045" transform="rotate(18.5976 283.349 635.149)" fill="url(#paint9_radial_1516_192)"/>
<ellipse cx="283.349" cy="635.149" rx="16.2071" ry="16.2045" transform="rotate(18.5976 283.349 635.149)" fill="url(#paint10_radial_1516_192)"/>
</g>
<g filter="url(#filter4_f_1516_192)">
<ellipse cx="287.609" cy="645.91" rx="16.2071" ry="16.2045" transform="rotate(18.5976 287.609 645.91)" fill="url(#paint11_linear_1516_192)"/>
<ellipse cx="287.609" cy="645.91" rx="16.2071" ry="16.2045" transform="rotate(18.5976 287.609 645.91)" fill="url(#paint12_radial_1516_192)"/>
</g>
</g>
<defs>
<filter id="filter0_f_1516_192" x="262.795" y="612.145" width="43.0557" height="43.0513" filterUnits="userSpaceOnUse" color-interpolation-filters="sRGB">
<feFlood flood-opacity="0" result="BackgroundImageFix"/>
<feBlend mode="normal" in="SourceGraphic" in2="BackgroundImageFix" result="shape"/>
<feGaussianBlur stdDeviation="2.65821" result="effect1_foregroundBlur_1516_192"/>
</filter>
<filter id="filter1_f_1516_192" x="259.081" y="614.931" width="59.005" height="59.0006" filterUnits="userSpaceOnUse" color-interpolation-filters="sRGB">
<feFlood flood-opacity="0" result="BackgroundImageFix"/>
<feBlend mode="normal" in="SourceGraphic" in2="BackgroundImageFix" result="shape"/>
<feGaussianBlur stdDeviation="6.64553" result="effect1_foregroundBlur_1516_192"/>
</filter>
<filter id="filter2_f_1516_192" x="261.821" y="613.624" width="47.316" height="53.8121" filterUnits="userSpaceOnUse" color-interpolation-filters="sRGB">
<feFlood flood-opacity="0" result="BackgroundImageFix"/>
<feBlend mode="normal" in="SourceGraphic" in2="BackgroundImageFix" result="shape"/>
<feGaussianBlur stdDeviation="2.65821" result="effect1_foregroundBlur_1516_192"/>
</filter>
<filter id="filter3_f_1516_192" x="261.821" y="613.624" width="43.0557" height="43.0513" filterUnits="userSpaceOnUse" color-interpolation-filters="sRGB">
<feFlood flood-opacity="0" result="BackgroundImageFix"/>
<feBlend mode="normal" in="SourceGraphic" in2="BackgroundImageFix" result="shape"/>
<feGaussianBlur stdDeviation="2.65821" result="effect1_foregroundBlur_1516_192"/>
</filter>
<filter id="filter4_f_1516_192" x="258.106" y="616.41" width="59.005" height="59.0006" filterUnits="userSpaceOnUse" color-interpolation-filters="sRGB">
<feFlood flood-opacity="0" result="BackgroundImageFix"/>
<feBlend mode="normal" in="SourceGraphic" in2="BackgroundImageFix" result="shape"/>
<feGaussianBlur stdDeviation="6.64553" result="effect1_foregroundBlur_1516_192"/>
</filter>
<linearGradient id="paint0_linear_1516_192" x1="193.811" y1="347.155" x2="439.313" y2="921.409" gradientUnits="userSpaceOnUse">
<stop stop-color="#E31717"/>
<stop offset="1" stop-color="#FFB800"/>
</linearGradient>
<radialGradient id="paint1_radial_1516_192" cx="0" cy="0" r="1" gradientUnits="userSpaceOnUse" gradientTransform="translate(782.961 701.248) rotate(-148.956) scale(476.677 557.737)">
<stop stop-color="#FFB800"/>
<stop offset="0.986758" stop-color="#E31717" stop-opacity="0"/>
</radialGradient>
<linearGradient id="paint2_linear_1516_192" x1="513.5" y1="465" x2="516.755" y2="745.365" gradientUnits="userSpaceOnUse">
<stop stop-color="#E35E17" stop-opacity="0.8"/>
<stop offset="1" stop-color="#FFB800" stop-opacity="0"/>
</linearGradient>
<linearGradient id="paint3_linear_1516_192" x1="270.367" y1="618.277" x2="297.101" y2="649.88" gradientUnits="userSpaceOnUse">
<stop stop-color="#E31717"/>
<stop offset="1" stop-color="#FFB800"/>
</linearGradient>
<radialGradient id="paint4_radial_1516_192" cx="0" cy="0" r="1" gradientUnits="userSpaceOnUse" gradientTransform="translate(289.275 638.083) rotate(-128.992) scale(21.892 27.3754)">
<stop stop-color="#E31717" stop-opacity="0"/>
<stop offset="1" stop-color="#FFB800"/>
</radialGradient>
<radialGradient id="paint5_radial_1516_192" cx="0" cy="0" r="1" gradientUnits="userSpaceOnUse" gradientTransform="translate(294.134 646.543) rotate(-130.018) scale(25.622 33.4142)">
<stop stop-color="#FFB800"/>
<stop offset="0.986758" stop-color="#E31717" stop-opacity="0"/>
</radialGradient>
<linearGradient id="paint6_linear_1516_192" x1="274.627" y1="629.037" x2="301.361" y2="660.64" gradientUnits="userSpaceOnUse">
<stop stop-color="#E31717"/>
<stop offset="1" stop-color="#FFB800"/>
</linearGradient>
<radialGradient id="paint7_radial_1516_192" cx="0" cy="0" r="1" gradientUnits="userSpaceOnUse" gradientTransform="translate(298.394 657.303) rotate(-130.018) scale(25.622 33.4142)">
<stop stop-color="#FFB800"/>
<stop offset="0.986758" stop-color="#E31717" stop-opacity="0"/>
</radialGradient>
<linearGradient id="paint8_linear_1516_192" x1="269.393" y1="619.755" x2="296.127" y2="651.358" gradientUnits="userSpaceOnUse">
<stop stop-color="#E31717"/>
<stop offset="1" stop-color="#FFB800"/>
</linearGradient>
<radialGradient id="paint9_radial_1516_192" cx="0" cy="0" r="1" gradientUnits="userSpaceOnUse" gradientTransform="translate(288.301 639.561) rotate(-128.992) scale(21.892 27.3754)">
<stop stop-color="#E31717" stop-opacity="0"/>
<stop offset="1" stop-color="#FFB800"/>
</radialGradient>
<radialGradient id="paint10_radial_1516_192" cx="0" cy="0" r="1" gradientUnits="userSpaceOnUse" gradientTransform="translate(293.16 648.021) rotate(-130.018) scale(25.622 33.4142)">
<stop stop-color="#FFB800"/>
<stop offset="0.986758" stop-color="#E31717" stop-opacity="0"/>
</radialGradient>
<linearGradient id="paint11_linear_1516_192" x1="273.653" y1="630.516" x2="300.387" y2="662.119" gradientUnits="userSpaceOnUse">
<stop stop-color="#E31717"/>
<stop offset="1" stop-color="#FFB800"/>
</linearGradient>
<radialGradient id="paint12_radial_1516_192" cx="0" cy="0" r="1" gradientUnits="userSpaceOnUse" gradientTransform="translate(297.42 658.782) rotate(-130.018) scale(25.622 33.4142)">
<stop stop-color="#FFB800"/>
<stop offset="0.986758" stop-color="#E31717" stop-opacity="0"/>
</radialGradient>
</defs>
</svg>
